<svg width="80" height="73" viewBox="0 0 80 73" fill="none" xmlns="http://www.w3.org/2000/svg">
<path d="M20.136 41.776C23.4 42.736 25.896 44.56 27.624 47.248C29.544 49.744 30.504 52.816 30.504 56.464C30.504 61.072 29.064 64.816 26.184 67.696C23.304 70.576 19.752 72.016 15.528 72.016C10.92 72.016 7.176 70.576 4.296 67.696C1.608 64.624 0.264001 60.88 0.264001 56.464C0.264001 54.16 0.456001 51.952 0.840001 49.84C1.416 47.536 2.472 44.272 4.008 40.048L16.104 0.303988H29.928L20.136 41.776ZM69.096 41.776C72.36 42.736 74.856 44.56 76.584 47.248C78.504 49.744 79.464 52.816 79.464 56.464C79.464 61.072 78.024 64.816 75.144 67.696C72.264 70.576 68.712 72.016 64.488 72.016C59.88 72.016 56.136 70.576 53.256 67.696C50.568 64.624 49.224 60.88 49.224 56.464C49.224 54.16 49.416 51.952 49.8 49.84C50.376 47.536 51.432 44.272 52.968 40.048L65.064 0.303988H78.888L69.096 41.776Z" fill="#2777AC" fill-opacity="0.35"/>
</svg>
