<svg width="50" height="50" viewBox="0 0 50 50" fill="none" xmlns="http://www.w3.org/2000/svg">
<g clip-path="url(#clip0_8_79)">
<path d="M25 50C38.8071 50 50 38.8071 50 25C50 11.1929 38.8071 0 25 0C11.1929 0 0 11.1929 0 25C0 38.8071 11.1929 50 25 50Z" fill="#7AA5DA"/>
<path d="M49.9926 24.4216L38.8948 13.3423L20.8179 35.3765L33.8339 48.3925C43.281 44.823 50 35.6968 50 25C50 24.8065 49.997 24.6138 49.9926 24.4216Z" fill="#5786B5"/>
<path d="M37.4724 13.039C38.469 12.6502 39.4993 13.5222 39.2805 14.5693L34.8107 35.9346C34.6019 36.9363 33.4252 37.3875 32.6003 36.7814L25.8528 31.8286L22.4135 35.3404C21.8091 35.9566 20.767 35.7057 20.5077 34.8841L18.0263 27.007L11.3747 25.0423C10.501 24.7847 10.4505 23.5693 11.2973 23.2377L37.4724 13.039ZM34.1912 17.7797C34.4824 17.5221 34.144 17.0676 33.8141 17.273L19.4571 26.177C19.2046 26.3336 19.0885 26.6417 19.1776 26.9261L21.1355 35.5238C21.1743 35.6551 21.3628 35.6366 21.3797 35.5003L21.8174 28.9481C21.8342 28.7865 21.9116 28.6383 22.0329 28.5306L34.1912 17.7797Z" fill="white"/>
<path d="M33.8141 17.273C34.1441 17.0677 34.4825 17.5222 34.1913 17.7798L22.0331 28.5306C21.9119 28.6384 21.8344 28.7865 21.8175 28.9481L21.3799 35.5003C21.3631 35.6366 21.1745 35.6552 21.1357 35.5238L19.1778 26.9262C19.0885 26.6417 19.2048 26.3336 19.4573 26.177L33.8141 17.273Z" fill="#9EC2E5"/>
<path d="M21.2064 35.6131C20.8899 35.5003 20.6223 35.2478 20.5078 34.8841L18.0264 27.0069L11.3748 25.0423C10.5011 24.7847 10.4506 23.5692 11.2973 23.2376L37.4724 13.039C38.1154 12.7882 38.7737 13.0626 39.0986 13.5711C39.038 13.4785 38.9656 13.3927 38.8849 13.3169L21.1272 27.8135V28.4481L21.0296 28.3774L21.1272 32.3741V35.5795C21.1525 35.5913 21.1794 35.6014 21.2063 35.6098V35.6131H21.2064Z" fill="white"/>
<path d="M39.3091 14.2107C39.3141 14.3252 39.3057 14.4464 39.2804 14.5693L34.8107 35.9346C34.6019 36.9363 33.4252 37.3875 32.6003 36.7814L25.8528 31.8286L21.1272 28.4481V27.8135L38.8848 13.3168C38.9656 13.3926 39.0381 13.4784 39.0986 13.571C39.1104 13.5912 39.1221 13.6096 39.134 13.6282C39.144 13.6484 39.1558 13.6686 39.166 13.6871C39.176 13.7073 39.1862 13.7275 39.1946 13.7477C39.2047 13.7696 39.2132 13.7898 39.2216 13.8117C39.2283 13.8302 39.2367 13.8504 39.2434 13.8723C39.2653 13.938 39.2821 14.0053 39.2939 14.0761C39.3007 14.1198 39.3057 14.1636 39.3091 14.2107Z" fill="#D1D1D1"/>
<path d="M25.8528 31.8285L22.4135 35.3404C22.3849 35.369 22.3546 35.3976 22.3242 35.4229C22.2939 35.4482 22.2636 35.47 22.2316 35.4919C22.23 35.4936 22.23 35.4936 22.23 35.4936C22.166 35.5357 22.1004 35.571 22.0313 35.5996C21.996 35.6131 21.9623 35.6266 21.927 35.635C21.7805 35.6787 21.6307 35.6906 21.4825 35.6754C21.4438 35.6721 21.4051 35.6654 21.3681 35.6586C21.363 35.6586 21.358 35.657 21.3529 35.6553C21.3159 35.6452 21.2788 35.6351 21.2418 35.6233C21.23 35.6199 21.2183 35.6165 21.2064 35.6098L21.1273 32.3742V28.4482L25.8528 31.8285Z" fill="#D1D1D1"/>
<path d="M22.3242 35.4229C22.294 35.4481 22.2636 35.4717 22.2317 35.4936V35.4919C22.2637 35.47 22.294 35.4481 22.3242 35.4229Z" fill="#DADDE0"/>
<path d="M22.2316 35.4919V35.4935C22.2316 35.4935 22.2316 35.4919 22.23 35.4935C22.23 35.4935 22.23 35.4935 22.2316 35.4919Z" fill="#DADDE0"/>
<path d="M22.0313 35.5997C22.1004 35.5711 22.166 35.5357 22.23 35.4937C22.166 35.5356 22.0986 35.571 22.0313 35.5997Z" fill="#DADDE0"/>
<path d="M21.4825 35.6754C21.6307 35.6905 21.7805 35.6787 21.9269 35.6349C21.8209 35.6686 21.7114 35.6838 21.602 35.6838C21.5683 35.6838 21.5347 35.6821 21.5027 35.6787C21.496 35.6788 21.4892 35.6788 21.4825 35.6754Z" fill="#DADDE0"/>
<path d="M21.6021 35.6837C21.5684 35.6837 21.5347 35.6821 21.5027 35.6786C21.5347 35.6821 21.5684 35.6837 21.6021 35.6837Z" fill="white"/>
<path d="M21.4825 35.6754C21.4893 35.6787 21.496 35.6787 21.5027 35.6787C21.4674 35.677 21.4354 35.672 21.4018 35.6652C21.4286 35.6704 21.4556 35.6737 21.4825 35.6754Z" fill="white"/>
<path d="M21.4826 35.6754C21.4556 35.6737 21.4287 35.6703 21.4018 35.6653C21.39 35.6636 21.3783 35.662 21.3681 35.6586C21.4051 35.6653 21.4438 35.672 21.4826 35.6754Z" fill="#DADDE0"/>
<path d="M21.2418 35.6233C21.2788 35.6351 21.3159 35.6452 21.3529 35.6553C21.3378 35.652 21.3227 35.6486 21.3075 35.6453C21.3008 35.6436 21.2941 35.6419 21.289 35.6385C21.2737 35.6351 21.2569 35.63 21.2418 35.6233Z" fill="#DADDE0"/>
<path d="M21.3074 35.645C21.3226 35.6483 21.3377 35.6518 21.3528 35.6551C21.3377 35.6534 21.3226 35.6501 21.3074 35.645Z" fill="white"/>
<path d="M21.2418 35.6232C21.2569 35.6299 21.2738 35.635 21.2889 35.6383C21.2637 35.6333 21.2385 35.6249 21.2132 35.6148C21.2232 35.6181 21.2316 35.6215 21.2418 35.6232Z" fill="white"/>
<path d="M21.2418 35.6232C21.2318 35.6216 21.2233 35.6182 21.2132 35.6148C21.2115 35.6165 21.2081 35.6148 21.2065 35.6132V35.6099C21.2182 35.6165 21.23 35.6198 21.2418 35.6232Z" fill="#DADDE0"/>
<path d="M21.1272 32.3741L21.2063 35.6098C21.1794 35.6014 21.1524 35.5912 21.1272 35.5795V32.3741Z" fill="#D1D1D1"/>
<path d="M21.1272 28.4481V32.3741L21.0296 28.3774L21.1272 28.4481Z" fill="#DADDE0"/>
<path d="M34.1912 17.7798L22.033 28.5307C21.9118 28.6384 21.8344 28.7865 21.8175 28.9481L21.3806 35.5009C21.3638 35.6372 21.1752 35.6558 21.1348 35.5244L19.1778 26.9263C19.0885 26.6418 19.2047 26.3337 19.4572 26.1771L33.8142 17.2731C34.1442 17.0677 34.4825 17.5223 34.1912 17.7798Z" fill="#ADBCC9"/>
</g>
<defs>
<clipPath id="clip0_8_79">
<rect width="50" height="50" fill="white"/>
</clipPath>
</defs>
</svg>
