<svg width="50" height="50" viewBox="0 0 50 50" fill="none" xmlns="http://www.w3.org/2000/svg">
<path d="M25 50C38.8071 50 50 38.8071 50 25C50 11.1929 38.8071 0 25 0C11.1929 0 0 11.1929 0 25C0 38.8071 11.1929 50 25 50Z" fill="#75B73B"/>
<path d="M35.1798 14.8268C33.7303 14.4643 31.5986 13.2123 30.2189 12.7105C24.8316 11.027 17.5926 12.3738 15.5724 18.6028C15.404 18.7711 15.0673 18.7711 14.8989 18.7711C10.8585 23.4849 13.5521 29.2088 13.2154 34.4277C13.1005 36.2674 12.1331 37.8942 10.8882 39.2702L21.3649 49.7361C22.5519 49.9089 23.7651 50 25 50C37.3473 50 47.6027 41.0484 49.6335 29.2812L35.1798 14.8268Z" fill="#52891D"/>
<path d="M24.3005 10.5905C16.6805 10.953 10.6673 17.2991 10.6902 24.9276C10.6973 27.251 11.2582 29.4441 12.2479 31.3821L10.7286 38.7566C10.6465 39.1556 11.0063 39.5049 11.4025 39.411L18.6286 37.699C20.4852 38.6239 22.5704 39.1579 24.7772 39.1916C32.5656 39.3107 39.0596 33.1267 39.3026 25.3411C39.5626 16.9956 32.6749 10.1916 24.3005 10.5905ZM32.9228 32.8063C30.8067 34.9224 27.9929 36.0879 25 36.0879C23.2477 36.0879 21.5697 35.6946 20.0131 34.9194L19.007 34.418L14.5764 35.4675L15.5089 30.9405L15.0133 29.9696C14.2051 28.3869 13.7953 26.6758 13.7953 24.8832C13.7953 21.8903 14.9608 19.0767 17.077 16.9604C19.1742 14.8629 22.0339 13.6787 25.0002 13.6787C27.9928 13.6787 30.8066 14.8443 32.9227 16.9604C35.0389 19.0765 36.2044 21.8904 36.2044 24.8829C36.2046 27.8493 35.0202 30.7089 32.9228 32.8063Z" fill="white"/>
<path d="M31.9448 27.9865L29.1729 27.1907C28.8088 27.0863 28.4162 27.1898 28.1507 27.4603L27.4728 28.1507C27.187 28.4421 26.7534 28.5356 26.3751 28.3825C25.0639 27.8519 22.3056 25.3993 21.6016 24.173C21.398 23.8191 21.4317 23.3769 21.6813 23.0536L22.273 22.2881C22.5048 21.9883 22.5536 21.5853 22.4004 21.2386L21.2343 18.6011C20.955 17.9695 20.1478 17.7855 19.6203 18.2316C18.8468 18.886 17.9289 19.88 17.8175 20.9816C17.6207 22.9236 18.4537 25.3716 21.6028 28.3111C25.2412 31.7074 28.155 32.1558 30.0523 31.6963C31.1284 31.4358 31.9884 30.3911 32.5308 29.5356C32.901 28.9519 32.6084 28.1773 31.9448 27.9865Z" fill="white"/>
<path d="M34.766 14.4246L32.5958 16.649C32.7063 16.7511 32.8162 16.8537 32.9231 16.9607C35.0393 19.0768 36.2047 21.8906 36.2047 24.8832C36.2047 27.8495 35.0203 30.709 32.9231 32.8065C30.8069 34.9226 27.9931 36.0881 25.0002 36.0881C23.2479 36.0881 21.57 35.6948 20.0133 34.9195L19.0072 34.4182L14.5766 35.4677L14.6682 35.0231L10.7449 39.0438C10.8314 39.3038 11.1067 39.4808 11.4025 39.4108L18.6286 37.6988C20.4852 38.6237 22.5704 39.1577 24.7772 39.1914C32.5656 39.3105 39.0598 33.1265 39.3026 25.3409C39.4369 21.031 37.6647 17.1323 34.766 14.4246Z" fill="#D1D1D1"/>
<path d="M31.9448 27.9865L29.1729 27.1907C28.8088 27.0863 28.4162 27.1898 28.1507 27.4603L27.4728 28.1507C27.187 28.4421 26.7534 28.5356 26.3751 28.3825C25.6177 28.076 24.3779 27.1281 23.3297 26.1458L21.4027 28.1209C21.4688 28.1842 21.5348 28.2474 21.6029 28.3111C25.2413 31.7074 28.1551 32.1558 30.0524 31.6963C31.1285 31.4358 31.9885 30.3911 32.5309 29.5356C32.901 28.9519 32.6084 28.1773 31.9448 27.9865Z" fill="#D1D1D1"/>
</svg>
